HIERARCHY
ROOT Hips
{
	OFFSET 0.000000 0.000000 0.000000
	CHANNELS 6 Xposition Yposition Zposition Zrotation Yrotation Xrotation 
	JOINT LHipJoint
	{
		OFFSET 0.000000 0.000000 0.000000
		CHANNELS 3 Zrotation Yrotation Xrotation
		JOINT LeftUpLeg
		{
			OFFSET 1.363060 -1.794630 0.839290
			CHANNELS 3 Zrotation Yrotation Xrotation
			JOINT LeftLeg
			{
				OFFSET 2.448110 -6.726130 0.000000
				CHANNELS 3 Zrotation Yrotation Xrotation
				JOINT LeftFoot
				{
					OFFSET 2.562200 -7.039590 0.000000
					CHANNELS 3 Zrotation Yrotation Xrotation
					JOINT LeftToeBase
					{
						OFFSET 0.157640 -0.433110 2.322550
						CHANNELS 3 Zrotation Yrotation Xrotation
						End Site
						{
							OFFSET 0.000000 0.000000 0.000000
						}
					}
				}
			}
		}
	}
	JOINT RHipJoint
	{
		OFFSET 0.000000 0.000000 0.000000
		CHANNELS 3 Zrotation Yrotation Xrotation
		JOINT RightUpLeg
		{
			OFFSET -1.305520 -1.794630 0.839290
			CHANNELS 3 Zrotation Yrotation Xrotation
			JOINT RightLeg
			{
				OFFSET -2.542530 -6.985550 0.000000
				CHANNELS 3 Zrotation Yrotation Xrotation
				JOINT RightFoot
				{
					OFFSET -2.568260 -7.056230 0.000000
					CHANNELS 3 Zrotation Yrotation Xrotation
					JOINT RightToeBase
					{
						OFFSET -0.164730 -0.452590 2.363150
						CHANNELS 3 Zrotation Yrotation Xrotation
						End Site
						{
							OFFSET 0.000000 0.000000 0.000000
						}
					}
				}
			}
		}
	}
	JOINT LowerBack
	{
		OFFSET 0.000000 0.000000 0.000000
		CHANNELS 3 Zrotation Yrotation Xrotation
		JOINT Spine
		{
			OFFSET 0.028270 2.035590 -0.193380
			CHANNELS 3 Zrotation Yrotation Xrotation
			JOINT Spine1
			{
				OFFSET 0.056720 2.048850 -0.042750
				CHANNELS 3 Zrotation Yrotation Xrotation
				JOINT Neck
				{
					OFFSET 0.000000 0.000000 0.000000
					CHANNELS 3 Zrotation Yrotation Xrotation
					JOINT Neck1
					{
						OFFSET -0.054170 1.746240 0.172020
						CHANNELS 3 Zrotation Yrotation Xrotation
						JOINT Head
						{
							OFFSET 0.104070 1.761360 -0.123970
							CHANNELS 3 Zrotation Yrotation Xrotation
							End Site
							{
								OFFSET 0.000000 0.000000 0.000000
							}
						}
					}
				}
				JOINT LeftShoulder
				{
					OFFSET 0.000000 0.000000 0.000000
					CHANNELS 3 Zrotation Yrotation Xrotation
					JOINT LeftArm
					{
						OFFSET 3.362410 1.200890 -0.311210
						CHANNELS 3 Zrotation Yrotation Xrotation
						JOINT LeftForeArm
						{
							OFFSET 4.983000 -0.000000 -0.000000
							CHANNELS 3 Zrotation Yrotation Xrotation
							JOINT LeftHand
							{
								OFFSET 3.483560 -0.000000 -0.000000
								CHANNELS 3 Zrotation Yrotation Xrotation
								JOINT LeftFingerBase
								{
									OFFSET 0.000000 0.000000 0.000000
									CHANNELS 3 Zrotation Yrotation Xrotation
									JOINT LeftHandIndex1
									{
										OFFSET 0.715260 -0.000000 -0.000000
										CHANNELS 3 Zrotation Yrotation Xrotation
										End Site
										{
											OFFSET 0.000000 0.000000 0.000000
										}
									}
								}
								JOINT LThumb
								{
									OFFSET 0.000000 0.000000 0.000000
									CHANNELS 3 Zrotation Yrotation Xrotation
									End Site
									{
										OFFSET 0.000000 0.000000 0.000000
									}
								}
							}
						}
					}
				}
				JOINT RightShoulder
				{
					OFFSET 0.000000 0.000000 0.000000
					CHANNELS 3 Zrotation Yrotation Xrotation
					JOINT RightArm
					{
						OFFSET -3.136600 1.374050 -0.404650
						CHANNELS 3 Zrotation Yrotation Xrotation
						JOINT RightForeArm
						{
							OFFSET -5.241900 -0.000000 -0.000000
							CHANNELS 3 Zrotation Yrotation Xrotation
							JOINT RightHand
							{
								OFFSET -3.444170 -0.000000 -0.000000
								CHANNELS 3 Zrotation Yrotation Xrotation
								JOINT RightFingerBase
								{
									OFFSET 0.000000 0.000000 0.000000
									CHANNELS 3 Zrotation Yrotation Xrotation
									JOINT RightHandIndex1
									{
										OFFSET -0.622530 -0.000000 -0.000000
										CHANNELS 3 Zrotation Yrotation Xrotation
										End Site
										{
											OFFSET 0.000000 0.000000 0.000000
										}
									}
								}
								JOINT RThumb
								{
									OFFSET 0.000000 0.000000 0.000000
									CHANNELS 3 Zrotation Yrotation Xrotation
									End Site
									{
										OFFSET 0.000000 0.000000 0.000000
									}
								}
							}
						}
					}
				}
			}
		}
	}
}
MOTION
Frames: 9
Frame Time: 0.008333
3.005105 14.676517 -22.456456 5.324912 -6.151862 21.019681 -1.346233 -7.109571 -11.919883 -16.013250 -3.137990 -32.766083 -5.029526 19.464682 65.907270 1.641045 -6.968673 -35.834103 -0.031753 -6.406419 6.135691 0.615165 9.651040 -12.439251 -2.269090 -11.930055 -6.213829 3.477272 -19.405372 66.586824 0.707453 -21.559639 15.066021 2.118326 9.375246 -11.703291 -2.561929 -3.195213 29.616299 -0.139414 -1.726295 -8.065077 -9.520485 1.002875 10.575917 -3.102181 1.491360 -21.298037 -3.997702 1.366289 11.232200 12.532881 -6.496374 -15.169421 13.347964 8.408946 0.162237 -80.682497 -25.575072 5.756009 -1.355741 -56.647830 33.378793 -2.013917 -27.556269 4.466312 0.000002 -0.000001 0.000002 0.000000 0.000000 0.000000 0.000000 0.000000 0.000000 -12.434697 -3.577734 4.718783 57.093927 54.371452 5.744637 -93.260718 77.847881 -20.744440 -36.157387 13.647390 -3.064409 -0.000005 0.000004 -0.000002 0.000000 0.000000 -0.000000 -0.000000 -0.000000 0.000000 
2.989129 14.679249 -22.195796 5.380293 -5.420902 21.318822 -1.271310 -7.181006 -12.035549 -16.367326 -3.475450 -31.367503 -5.100418 19.099510 65.355070 1.632710 -7.385235 -36.139426 -0.448518 -6.669084 5.511659 0.581677 9.348591 -12.126778 -1.956782 -11.357429 -9.914442 2.732141 -20.392918 70.546570 0.120962 -21.674396 13.489472 5.671421 9.386079 -18.288231 -2.318493 -2.896647 29.437640 -0.071812 -1.953155 -8.010209 -9.447751 0.816745 11.062041 -3.033466 1.620181 -21.763439 -4.248159 1.479001 11.033138 12.821200 -6.294100 -15.995075 13.850790 8.492048 1.023572 -80.183346 -30.803629 5.473896 -1.204760 -57.718637 33.575317 -2.571538 -27.701065 4.638515 0.000002 -0.000001 0.000002 0.000000 -0.000000 0.000000 0.000000 -0.000000 0.000000 -12.212353 -4.096013 3.579440 59.549914 51.026368 1.758229 -80.931744 85.690005 -14.492953 -32.261607 15.674015 -2.734217 -0.000005 0.000004 -0.000002 0.000000 -0.000000 -0.000000 0.000000 -0.000000 0.000000 
2.990240 14.699730 -21.932733 5.245371 -4.786895 21.670086 -1.342975 -7.390663 -12.178141 -16.518703 -3.370866 -29.992853 -4.965282 18.492321 64.732423 1.585915 -8.011506 -36.241972 -0.709316 -6.404697 4.648818 0.377024 9.116969 -11.910444 -1.279120 -11.234855 -13.916296 1.898093 -20.725329 74.288192 -1.511267 -22.052764 12.218559 4.602712 12.938623 -19.944814 -1.795642 -2.527582 29.349749 -0.095075 -1.976356 -7.990749 -8.888365 0.752546 11.949516 -3.491332 1.658487 -22.581089 -4.412842 1.605737 10.809558 13.265329 -6.096046 -16.872742 13.818460 8.484014 2.017179 -79.771205 -36.985022 5.385210 -0.645464 -58.969125 33.757522 -2.742683 -28.025116 4.742676 0.000002 -0.000001 0.000002 -0.000000 -0.000000 -0.000000 0.000000 -0.000000 -0.000000 -12.632412 -4.333400 2.583586 60.713760 46.696082 -0.634725 -66.899999 89.582749 -4.057601 -31.743090 17.040747 -2.848171 -0.000005 0.000004 -0.000002 -0.000000 -0.000000 0.000000 0.000000 0.000000 0.000000 
2.979655 14.721216 -21.654805 5.217728 -4.045835 22.004531 -1.627420 -7.313823 -12.179035 -16.523466 -3.761375 -28.531442 -4.953974 17.914912 63.990724 1.471684 -8.578059 -36.301275 -0.032330 -7.409757 7.289893 0.546626 8.641829 -11.476873 -0.999021 -10.824514 -17.965937 -0.905556 -21.485330 77.813332 -2.441962 -20.987732 11.396782 2.631285 9.070277 -12.680247 -1.414035 -2.154662 29.147272 -0.116862 -1.932936 -8.001663 -8.002893 0.555095 13.269347 -4.172311 1.524715 -23.661000 -4.656204 1.638421 10.586963 13.140632 -6.442542 -15.253648 13.106494 8.342617 2.850448 -78.814342 -43.502742 4.929441 0.121471 -59.795938 34.582996 -1.191937 -29.523140 4.554335 0.000002 -0.000001 0.000002 0.000000 0.000000 0.000000 -0.000000 0.000000 0.000000 -12.851620 -4.969574 1.975538 61.501249 43.338962 0.883029 -57.442763 89.096660 1.416649 -28.448700 18.065922 -2.403990 -0.000005 0.000004 -0.000002 0.000000 0.000000 -0.000000 0.000000 0.000000 -0.000000 
2.965586 14.730030 -21.391742 5.189070 -3.134699 22.265486 -1.508127 -7.506350 -12.386337 -16.771813 -4.023143 -26.841861 -5.025324 17.439015 63.176226 1.339771 -9.065333 -36.359174 -0.011262 -7.545304 7.481899 0.551405 8.399938 -11.227666 -0.715555 -10.602216 -21.627728 -3.493358 -22.193632 81.125646 -2.676577 -20.425389 10.332130 5.841853 2.712861 -12.316319 -0.951389 -1.683921 29.005600 -0.104597 -1.945957 -7.948536 -7.460388 0.283095 13.777736 -4.445893 1.519641 -23.924204 -4.798247 1.680590 10.370742 13.373108 -6.610443 -14.058466 13.104849 7.430206 3.394359 -77.406350 -48.993700 3.648126 0.940395 -60.195981 34.961116 0.589124 -30.091706 4.143501 0.000002 -0.000001 0.000002 -0.000000 0.000000 -0.000000 -0.000000 0.000000 -0.000000 -12.828641 -5.323197 1.491150 62.338026 39.642962 2.702023 -44.072485 87.837581 12.214816 -26.732506 19.174921 -2.230685 -0.000005 0.000004 -0.000002 -0.000000 0.000000 -0.000000 -0.000000 0.000000 0.000000 
2.961637 14.747132 -21.132583 4.946389 -2.347171 22.428586 -1.327051 -7.750148 -12.538996 -17.077586 -3.692719 -25.140439 -5.080633 16.502802 62.258115 1.279269 -9.540645 -36.542186 -0.671799 -6.119384 4.421413 0.283331 8.243678 -11.124828 -0.027143 -10.418807 -25.310710 -4.459065 -22.533736 83.708622 -4.312851 -20.809942 8.376808 7.685823 4.596829 -17.264670 -0.475957 -1.199850 28.938598 -0.079043 -1.909484 -7.914142 -6.411171 0.019408 13.829202 -5.155975 1.595800 -23.804349 -4.880563 1.892066 10.414486 13.961508 -6.196258 -15.062460 13.080608 6.705560 4.198263 -76.488426 -53.876113 2.424833 1.200359 -61.589099 35.070194 1.826197 -29.817850 3.747896 0.000002 -0.000001 0.000002 -0.000000 0.000000 0.000000 -0.000000 0.000000 -0.000000 -13.321377 -5.954671 1.267561 63.659731 36.124398 4.509575 -29.632570 86.693396 25.155913 -25.364788 21.282981 -2.115809 -0.000005 0.000004 -0.000002 -0.000000 0.000000 0.000000 0.000000 0.000000 -0.000000 
2.961276 14.765976 -20.873273 4.599841 -1.559126 22.496234 -1.139246 -7.948597 -12.691594 -17.230794 -3.497746 -23.166450 -4.904727 15.828206 61.023085 1.114361 -10.369561 -36.672826 -0.544057 -6.045062 4.629287 -0.041407 8.007662 -10.977480 0.911707 -10.298803 -29.165167 -5.442230 -22.639471 85.819671 -6.650655 -21.090596 6.343823 4.558043 6.576111 -13.417210 0.031070 -0.675453 28.896562 -0.058391 -1.735583 -7.872978 -5.445749 -0.127308 14.098044 -5.710980 1.551679 -23.877508 -4.930088 1.992975 10.601032 14.330838 -5.989805 -15.380630 13.302267 5.976783 4.829116 -75.564633 -58.739202 1.107110 1.328393 -63.465238 35.387773 2.857301 -30.049217 3.484788 0.000002 -0.000001 0.000002 -0.000000 -0.000000 -0.000000 0.000000 -0.000000 -0.000000 -13.578534 -7.136492 1.152367 65.073257 33.017113 6.198801 -19.109209 85.325150 32.015834 -23.577428 21.737570 -1.809168 -0.000005 0.000004 -0.000002 0.000000 -0.000000 0.000000 0.000000 -0.000000 -0.000000 
2.952703 14.777763 -20.614715 4.364573 -0.764410 22.479827 -0.879513 -8.128360 -12.822009 -17.489193 -3.414452 -21.084662 -4.600281 15.365194 59.630422 0.791510 -11.430465 -36.670795 -0.818580 -5.845688 3.792802 -0.240174 7.683896 -10.889415 1.703867 -10.212022 -32.880525 -8.578615 -22.559893 87.824842 -7.457202 -19.893444 4.431665 3.856859 5.132327 -10.888886 0.376894 -0.055128 28.869344 -0.007901 -1.562388 -7.799803 -5.073392 -0.117367 14.020562 -5.593546 1.519505 -23.572914 -4.931793 1.980976 10.794630 13.942729 -5.772397 -14.824481 14.191809 4.580152 5.002546 -73.555408 -62.937012 -1.271174 1.747234 -64.915196 35.732508 3.842027 -30.333364 3.234635 0.000002 -0.000001 0.000002 -0.000000 -0.000000 0.000000 0.000000 0.000000 -0.000000 -13.167647 -8.215733 1.204897 66.347215 29.801009 7.448917 -11.171828 83.565853 36.089106 -21.026260 21.655643 -1.260598 -0.000005 0.000004 -0.000002 0.000000 -0.000000 0.000000 -0.000000 0.000000 -0.000000 
2.946682 14.768769 -20.347748 4.109497 0.072797 22.295985 -0.386388 -8.074301 -12.870667 -18.059006 -3.729962 -18.790289 -5.274048 14.483739 58.337772 1.402319 -10.878143 -37.288263 -1.663658 -3.313142 -0.442113 -0.537108 7.161904 -10.638458 2.731851 -10.002204 -36.581499 -11.925917 -22.214975 89.647527 -7.885402 -18.543081 2.642847 5.041016 7.321681 -15.160041 0.770646 0.540049 28.731241 0.076835 -1.634530 -7.627294 -4.484853 -0.487230 13.298678 -5.651074 1.591806 -22.592143 -4.881306 2.055106 10.925666 13.091720 -5.309536 -14.718771 14.808640 2.975902 4.853446 -70.451220 -65.981345 -4.673178 2.773763 -65.801364 35.901530 4.901350 -30.281248 2.925746 0.000002 -0.000001 0.000002 -0.000000 -0.000000 0.000000 -0.000000 0.000000 0.000000 -13.258133 -8.432608 1.427347 67.499991 26.229628 8.326124 -5.443719 81.483951 37.447922 -15.122028 22.508190 -0.056497 -0.000005 0.000004 -0.000002 0.000000 -0.000000 0.000000 -0.000000 0.000000 -0.000000 
